<mxfile host="app.diagrams.net" modified="2023-05-30T18:11:19.147Z" agent="Mozilla/5.0 (Windows NT 10.0; Win64; x64) AppleWebKit/537.36 (KHTML, like Gecko) Chrome/113.0.0.0 Safari/537.36" etag="lnvqz2mtttOAkYJ0Vt54" version="21.3.5" type="device">
  <diagram name="Page-1" id="AO3PzVxPkSk40unCkHxe">
    <mxGraphModel dx="2567" dy="1260" grid="1" gridSize="10" guides="1" tooltips="1" connect="1" arrows="1" fold="1" page="1" pageScale="1" pageWidth="827" pageHeight="1169" math="0" shadow="0">
      <root>
        <mxCell id="0" />
        <mxCell id="1" parent="0" />
        <mxCell id="DPbfkmQDcSMVqxTIG8kD-4" value="True" style="edgeStyle=orthogonalEdgeStyle;rounded=0;orthogonalLoop=1;jettySize=auto;html=1;exitX=0.5;exitY=1;exitDx=0;exitDy=0;entryX=0.5;entryY=0;entryDx=0;entryDy=0;" edge="1" parent="1" source="DPbfkmQDcSMVqxTIG8kD-2" target="DPbfkmQDcSMVqxTIG8kD-3">
          <mxGeometry relative="1" as="geometry" />
        </mxCell>
        <mxCell id="DPbfkmQDcSMVqxTIG8kD-2" value="&lt;b&gt;Initialize&lt;/b&gt;: n&amp;nbsp;" style="rounded=0;whiteSpace=wrap;html=1;" vertex="1" parent="1">
          <mxGeometry x="340" y="90" width="200" height="100" as="geometry" />
        </mxCell>
        <mxCell id="DPbfkmQDcSMVqxTIG8kD-6" style="edgeStyle=orthogonalEdgeStyle;rounded=0;orthogonalLoop=1;jettySize=auto;html=1;entryX=0.5;entryY=0;entryDx=0;entryDy=0;" edge="1" parent="1" source="DPbfkmQDcSMVqxTIG8kD-3" target="DPbfkmQDcSMVqxTIG8kD-5">
          <mxGeometry relative="1" as="geometry" />
        </mxCell>
        <mxCell id="DPbfkmQDcSMVqxTIG8kD-3" value="&lt;font style=&quot;font-size: 12px;&quot;&gt;pq.pop()&lt;br&gt;stack_[n] = true&lt;br&gt;visited_childs = vector&amp;lt;bool&amp;gt;(number_of_tasks+1, false)&lt;br&gt;visited_parents = vector&amp;lt;bool&amp;gt;(number_of_tasks+1, false)&lt;/font&gt;" style="rounded=0;whiteSpace=wrap;html=1;" vertex="1" parent="1">
          <mxGeometry x="340" y="280" width="200" height="100" as="geometry" />
        </mxCell>
        <mxCell id="DPbfkmQDcSMVqxTIG8kD-9" value="(am_I_a_bottleneck(n))" style="edgeStyle=orthogonalEdgeStyle;rounded=0;orthogonalLoop=1;jettySize=auto;html=1;exitX=0;exitY=0.5;exitDx=0;exitDy=0;" edge="1" parent="1" source="DPbfkmQDcSMVqxTIG8kD-5" target="DPbfkmQDcSMVqxTIG8kD-7">
          <mxGeometry relative="1" as="geometry" />
        </mxCell>
        <mxCell id="DPbfkmQDcSMVqxTIG8kD-10" value="~(am_I_a_bottleneck(n))" style="edgeStyle=orthogonalEdgeStyle;rounded=0;orthogonalLoop=1;jettySize=auto;html=1;exitX=1;exitY=0.5;exitDx=0;exitDy=0;entryX=1;entryY=0.25;entryDx=0;entryDy=0;" edge="1" parent="1" source="DPbfkmQDcSMVqxTIG8kD-5" target="DPbfkmQDcSMVqxTIG8kD-8">
          <mxGeometry relative="1" as="geometry">
            <Array as="points">
              <mxPoint x="610" y="520" />
              <mxPoint x="610" y="685" />
            </Array>
            <mxPoint as="offset" />
          </mxGeometry>
        </mxCell>
        <mxCell id="DPbfkmQDcSMVqxTIG8kD-5" value="NULL" style="rounded=0;whiteSpace=wrap;html=1;" vertex="1" parent="1">
          <mxGeometry x="340" y="470" width="200" height="100" as="geometry" />
        </mxCell>
        <mxCell id="DPbfkmQDcSMVqxTIG8kD-13" value="True" style="edgeStyle=orthogonalEdgeStyle;rounded=0;orthogonalLoop=1;jettySize=auto;html=1;entryX=0;entryY=0.5;entryDx=0;entryDy=0;" edge="1" parent="1" source="DPbfkmQDcSMVqxTIG8kD-7" target="DPbfkmQDcSMVqxTIG8kD-8">
          <mxGeometry relative="1" as="geometry">
            <Array as="points">
              <mxPoint x="80" y="710" />
            </Array>
          </mxGeometry>
        </mxCell>
        <mxCell id="DPbfkmQDcSMVqxTIG8kD-7" value="cout &amp;lt;&amp;lt; n &amp;lt;&amp;lt; endl" style="rounded=0;whiteSpace=wrap;html=1;" vertex="1" parent="1">
          <mxGeometry x="-20" y="470" width="200" height="100" as="geometry" />
        </mxCell>
        <mxCell id="DPbfkmQDcSMVqxTIG8kD-16" value="~(i &amp;lt; childs[n].size(); i++)" style="edgeStyle=orthogonalEdgeStyle;rounded=0;orthogonalLoop=1;jettySize=auto;html=1;entryX=0.5;entryY=0;entryDx=0;entryDy=0;exitX=0;exitY=0.5;exitDx=0;exitDy=0;" edge="1" parent="1" source="DPbfkmQDcSMVqxTIG8kD-29" target="DPbfkmQDcSMVqxTIG8kD-15">
          <mxGeometry relative="1" as="geometry" />
        </mxCell>
        <mxCell id="DPbfkmQDcSMVqxTIG8kD-17" value="(i &amp;lt; childs[n].size(); ++i)" style="edgeStyle=orthogonalEdgeStyle;rounded=0;orthogonalLoop=1;jettySize=auto;html=1;exitX=1;exitY=0.75;exitDx=0;exitDy=0;" edge="1" parent="1" source="DPbfkmQDcSMVqxTIG8kD-29" target="DPbfkmQDcSMVqxTIG8kD-14">
          <mxGeometry relative="1" as="geometry" />
        </mxCell>
        <mxCell id="DPbfkmQDcSMVqxTIG8kD-30" value="True" style="edgeStyle=orthogonalEdgeStyle;rounded=0;orthogonalLoop=1;jettySize=auto;html=1;entryX=0.5;entryY=0;entryDx=0;entryDy=0;" edge="1" parent="1" source="DPbfkmQDcSMVqxTIG8kD-8" target="DPbfkmQDcSMVqxTIG8kD-29">
          <mxGeometry relative="1" as="geometry" />
        </mxCell>
        <mxCell id="DPbfkmQDcSMVqxTIG8kD-8" value="i = 0" style="rounded=0;whiteSpace=wrap;html=1;" vertex="1" parent="1">
          <mxGeometry x="340" y="660" width="200" height="100" as="geometry" />
        </mxCell>
        <mxCell id="DPbfkmQDcSMVqxTIG8kD-23" value="(stack_[visit] == false &amp;amp;&amp;amp; (degree[visit]==(int)parents[visit].size()))" style="edgeStyle=orthogonalEdgeStyle;rounded=0;orthogonalLoop=1;jettySize=auto;html=1;exitX=0.5;exitY=1;exitDx=0;exitDy=0;entryX=0.5;entryY=0;entryDx=0;entryDy=0;" edge="1" parent="1" source="DPbfkmQDcSMVqxTIG8kD-14" target="DPbfkmQDcSMVqxTIG8kD-22">
          <mxGeometry relative="1" as="geometry" />
        </mxCell>
        <mxCell id="DPbfkmQDcSMVqxTIG8kD-26" value="~(stack_[visit] == false &amp;amp;&amp;amp; (degree[visit]==(int)parents[visit].size()))" style="edgeStyle=orthogonalEdgeStyle;rounded=0;orthogonalLoop=1;jettySize=auto;html=1;entryX=1;entryY=0.75;entryDx=0;entryDy=0;" edge="1" parent="1" source="DPbfkmQDcSMVqxTIG8kD-14">
          <mxGeometry relative="1" as="geometry">
            <mxPoint x="540" y="890" as="targetPoint" />
            <Array as="points">
              <mxPoint x="810" y="1085" />
              <mxPoint x="810" y="890" />
            </Array>
          </mxGeometry>
        </mxCell>
        <mxCell id="DPbfkmQDcSMVqxTIG8kD-14" value="int visit = childs[n][i]&lt;br&gt;degree[visit]++" style="rounded=0;whiteSpace=wrap;html=1;" vertex="1" parent="1">
          <mxGeometry x="540" y="1035" width="200" height="100" as="geometry" />
        </mxCell>
        <mxCell id="DPbfkmQDcSMVqxTIG8kD-19" value="(pq.empty())" style="edgeStyle=orthogonalEdgeStyle;rounded=0;orthogonalLoop=1;jettySize=auto;html=1;entryX=0.5;entryY=0;entryDx=0;entryDy=0;" edge="1" parent="1" source="DPbfkmQDcSMVqxTIG8kD-15" target="DPbfkmQDcSMVqxTIG8kD-18">
          <mxGeometry relative="1" as="geometry" />
        </mxCell>
        <mxCell id="DPbfkmQDcSMVqxTIG8kD-21" value="~(pq.empty())" style="edgeStyle=orthogonalEdgeStyle;rounded=0;orthogonalLoop=1;jettySize=auto;html=1;entryX=0.5;entryY=0;entryDx=0;entryDy=0;" edge="1" parent="1" source="DPbfkmQDcSMVqxTIG8kD-15" target="DPbfkmQDcSMVqxTIG8kD-20">
          <mxGeometry relative="1" as="geometry" />
        </mxCell>
        <mxCell id="DPbfkmQDcSMVqxTIG8kD-15" value="NULL" style="rounded=0;whiteSpace=wrap;html=1;" vertex="1" parent="1">
          <mxGeometry x="140" y="1035" width="200" height="100" as="geometry" />
        </mxCell>
        <mxCell id="DPbfkmQDcSMVqxTIG8kD-18" value="return" style="rounded=0;whiteSpace=wrap;html=1;" vertex="1" parent="1">
          <mxGeometry x="-234" y="1255" width="200" height="100" as="geometry" />
        </mxCell>
        <mxCell id="DPbfkmQDcSMVqxTIG8kD-33" value="True" style="edgeStyle=orthogonalEdgeStyle;rounded=0;orthogonalLoop=1;jettySize=auto;html=1;entryX=1;entryY=0.5;entryDx=0;entryDy=0;" edge="1" parent="1" source="DPbfkmQDcSMVqxTIG8kD-20" target="DPbfkmQDcSMVqxTIG8kD-18">
          <mxGeometry relative="1" as="geometry" />
        </mxCell>
        <mxCell id="DPbfkmQDcSMVqxTIG8kD-20" value="helper_function(pq.top())" style="rounded=0;whiteSpace=wrap;html=1;" vertex="1" parent="1">
          <mxGeometry x="140" y="1255" width="200" height="100" as="geometry" />
        </mxCell>
        <mxCell id="DPbfkmQDcSMVqxTIG8kD-31" value="True" style="edgeStyle=orthogonalEdgeStyle;rounded=0;orthogonalLoop=1;jettySize=auto;html=1;exitX=1;exitY=0.5;exitDx=0;exitDy=0;entryX=0.999;entryY=0.15;entryDx=0;entryDy=0;entryPerimeter=0;" edge="1" parent="1" source="DPbfkmQDcSMVqxTIG8kD-22" target="DPbfkmQDcSMVqxTIG8kD-29">
          <mxGeometry relative="1" as="geometry">
            <Array as="points">
              <mxPoint x="1010" y="1305" />
              <mxPoint x="1010" y="865" />
            </Array>
          </mxGeometry>
        </mxCell>
        <mxCell id="DPbfkmQDcSMVqxTIG8kD-22" value="pq.push(visit)" style="rounded=0;whiteSpace=wrap;html=1;" vertex="1" parent="1">
          <mxGeometry x="540" y="1255" width="200" height="100" as="geometry" />
        </mxCell>
        <mxCell id="DPbfkmQDcSMVqxTIG8kD-29" value="NULL" style="rounded=0;whiteSpace=wrap;html=1;" vertex="1" parent="1">
          <mxGeometry x="340" y="850" width="200" height="100" as="geometry" />
        </mxCell>
      </root>
    </mxGraphModel>
  </diagram>
</mxfile>
